<?xml version="1.0" standalone="no"?>
<!DOCTYPE svg PUBLIC "-//W3C//DTD SVG 20010904//EN"
 "http://www.w3.org/TR/2001/REC-SVG-20010904/DTD/svg10.dtd">
<svg version="1.0" xmlns="http://www.w3.org/2000/svg"
 width="447.000000pt" height="559.000000pt" viewBox="0 0 447.000000 559.000000"
 preserveAspectRatio="xMidYMid meet">

<g transform="translate(0.000000,559.000000) scale(0.100000,-0.100000)"
fill="#000000" stroke="none">
<path d="M3600 3161 l0 -61 40 0 c22 0 40 5 40 10 0 6 -13 10 -30 10 -29 0
-30 2 -30 44 0 25 -4 48 -10 51 -6 4 -10 -17 -10 -54z"/>
<path d="M3727 3203 c-13 -12 -7 -51 12 -74 l18 -22 32 22 c47 34 42 67 -11
62 -9 -1 -19 3 -23 9 -7 12 -19 13 -28 3z"/>
<path d="M3464 3180 c-12 -5 -25 -13 -28 -19 -8 -12 32 -101 45 -101 12 0 11
7 -1 30 -9 16 -5 22 17 35 l28 16 -32 -6 c-20 -4 -34 -2 -39 6 -4 7 -3 14 3
16 6 2 19 10 29 18 21 16 10 18 -22 5z"/>
<path d="M1841 3146 c-7 -8 -44 -24 -82 -36 -72 -22 -83 -37 -55 -69 7 -9 17
-26 20 -37 6 -21 3 -22 -67 -26 -60 -3 -82 -8 -116 -31 -61 -41 -91 -108 -91
-209 0 -87 10 -121 47 -160 45 -48 141 -49 185 -2 28 29 48 31 48 5 0 -30 17
-36 112 -38 71 -1 87 1 92 14 4 9 -2 25 -11 35 -16 18 -19 50 -23 292 -5 265
-5 271 -26 274 -11 2 -26 -4 -33 -12z m-131 -247 c19 -34 16 -184 -4 -214 -19
-29 -38 -32 -60 -9 -12 12 -16 37 -16 110 0 53 5 104 10 115 14 26 56 25 70
-2z"/>
<path d="M3857 3103 c-11 -36 -14 -60 -8 -66 11 -11 113 51 105 65 -3 4 -25
-6 -50 -22 -24 -17 -44 -29 -44 -27 0 3 7 24 15 48 9 23 12 46 7 51 -4 4 -16
-18 -25 -49z"/>
<path d="M243 3073 c-3 -8 1 -28 11 -43 22 -38 23 -391 1 -430 -29 -51 -22
-58 53 -57 74 2 75 2 48 72 -16 42 -23 325 -8 325 4 0 25 -57 46 -128 22 -70
42 -131 46 -137 3 -5 14 -36 25 -69 20 -61 38 -78 60 -55 7 8 41 97 75 199 35
102 64 187 66 189 2 2 4 -70 4 -162 0 -134 -3 -168 -15 -181 -16 -15 -20 -45
-7 -47 4 -1 56 -3 115 -4 121 -3 134 4 103 55 -24 41 -24 389 0 430 30 50 17
58 -95 58 -58 -1 -107 -6 -115 -12 -8 -6 -29 -54 -46 -106 -18 -52 -35 -99
-40 -104 -4 -4 -21 32 -36 80 -16 49 -36 101 -46 115 -17 26 -20 26 -128 27
-90 0 -113 -3 -117 -15z"/>
<path d="M3957 2982 c-36 -39 -14 -92 38 -92 26 0 39 6 52 26 15 24 15 29 2
53 -19 33 -67 40 -92 13z m81 -25 c5 -26 -16 -47 -49 -47 -16 0 -29 2 -29 4 0
2 -3 11 -6 19 -3 8 2 22 12 31 21 22 68 17 72 -7z"/>
<path d="M1048 2966 c-58 -21 -87 -44 -94 -73 -9 -35 7 -57 43 -61 25 -3 36 4
66 41 40 49 72 62 112 47 20 -7 26 -16 23 -33 -3 -25 -42 -47 -132 -72 -35
-10 -72 -30 -93 -49 -30 -27 -36 -41 -41 -86 -11 -120 72 -172 184 -115 61 31
82 32 86 3 3 -22 8 -23 93 -24 109 -1 123 6 95 51 -15 25 -20 50 -20 107 0
146 -27 220 -93 255 -43 22 -180 28 -229 9z"/>
<path d="M2125 2974 c-83 -20 -143 -82 -119 -122 20 -31 67 -27 102 9 18 18
32 36 32 40 0 4 16 13 35 19 43 14 75 0 75 -34 0 -25 -22 -37 -133 -72 -68
-21 -124 -72 -133 -121 -9 -49 3 -97 32 -124 35 -33 119 -34 162 -2 42 31 66
33 70 6 4 -27 -4 -25 102 -28 104 -3 116 4 91 53 -14 28 -20 67 -23 154 -4
108 -6 119 -32 152 -39 52 -79 69 -166 72 -41 2 -84 1 -95 -2z"/>
<path d="M2634 2962 c-18 -15 -51 -28 -121 -48 -18 -5 -16 -39 2 -54 12 -10
15 -37 15 -123 0 -92 -3 -115 -20 -142 -28 -46 -14 -52 106 -53 124 0 136 5
110 50 -25 42 -33 167 -14 223 10 31 19 41 38 43 51 5 55 -6 58 -155 2 -76 8
-142 13 -148 5 -5 50 -11 100 -11 99 -2 118 9 83 47 -15 16 -19 40 -22 117 -3
107 8 145 46 150 46 7 52 -11 52 -152 0 -72 4 -138 9 -146 7 -10 34 -15 101
-16 103 -2 116 6 86 56 -13 22 -16 55 -16 157 0 177 -25 222 -122 223 -47 0
-75 -11 -118 -49 l-35 -31 -33 38 c-31 35 -37 37 -92 37 -50 0 -63 -4 -98 -32
-23 -18 -45 -33 -51 -33 -5 0 -11 15 -13 33 -4 38 -31 47 -64 19z"/>
<path d="M3482 2969 c-19 -6 -53 -29 -77 -53 -34 -35 -45 -55 -55 -100 -31
-149 50 -258 202 -273 117 -10 228 41 228 106 0 61 -47 61 -90 1 -25 -36 -85
-55 -124 -40 -60 23 -36 70 37 70 21 0 62 11 91 25 68 32 91 72 83 141 -9 85
-87 135 -207 133 -30 0 -70 -5 -88 -10z m104 -47 c50 -33 43 -180 -9 -190 -28
-6 -45 16 -53 63 -7 51 2 99 23 120 16 17 23 18 39 7z"/>
<path d="M4002 2804 c-26 -18 -28 -46 -6 -68 17 -18 104 -23 104 -6 0 6 -20
10 -44 10 -45 0 -70 17 -57 38 6 10 30 16 89 21 7 0 10 6 7 11 -9 15 -68 12
-93 -6z"/>
<path d="M3966 2651 c-3 -5 11 -17 32 -27 l37 -19 -50 -5 c-68 -7 -70 -28 -5
-57 27 -12 52 -18 55 -14 2 5 -15 17 -38 27 l-42 19 54 5 c30 3 56 10 58 17 5
14 -94 67 -101 54z"/>
<path d="M3845 2495 c-17 -14 -24 -25 -16 -25 8 0 23 7 33 16 16 16 18 15 24
-1 5 -11 1 -21 -9 -27 -10 -5 -17 -14 -17 -20 0 -6 10 -4 24 5 20 14 26 14 35
3 9 -11 5 -18 -16 -35 -15 -11 -23 -21 -16 -21 7 0 24 11 39 24 l28 23 -35 41
c-19 23 -36 42 -39 41 -3 0 -18 -11 -35 -24z"/>
</g>
</svg>
